<svg width="19" height="23" viewBox="0 0 19 23" fill="none" xmlns="http://www.w3.org/2000/svg">
<path d="M15.8693 12.2302C15.8808 11.3487 16.1186 10.4843 16.5605 9.71751C17.0023 8.95075 17.6339 8.30653 18.3966 7.84478C17.9121 7.16336 17.273 6.60257 16.53 6.20696C15.7869 5.81136 14.9605 5.59183 14.1163 5.56582C12.3154 5.37965 10.5695 6.62713 9.65179 6.62713C8.71633 6.62713 7.30338 5.5843 5.78188 5.61513C4.79772 5.64645 3.83859 5.9283 2.99792 6.43323C2.15726 6.93816 1.46373 7.64895 0.984924 8.49633C-1.08918 12.033 0.457914 17.2306 2.44473 20.0894C3.43878 21.4892 4.60054 23.0529 6.12067 22.9974C7.60822 22.9367 8.16378 22.0632 9.95938 22.0632C11.7383 22.0632 12.2595 22.9974 13.8105 22.9622C15.4067 22.9367 16.4124 21.5561 17.3716 20.143C18.0858 19.1456 18.6354 18.0432 19 16.8767C18.0726 16.4904 17.2813 15.8438 16.7245 15.0175C16.1678 14.1913 15.8704 13.2219 15.8693 12.2302Z" fill="white"/>
<path d="M12.9398 3.68683C13.8101 2.65786 14.2388 1.3353 14.135 0C12.8054 0.13754 11.5771 0.763407 10.6951 1.7529C10.2638 2.23629 9.93348 2.79865 9.72302 3.40784C9.51256 4.01703 9.42607 4.6611 9.4685 5.30323C10.1336 5.30998 10.7915 5.16801 11.3928 4.88802C11.9941 4.60803 12.523 4.19732 12.9398 3.68683Z" fill="white"/>
</svg>
