<svg width="86" height="86" viewBox="0 0 86 86" fill="none" xmlns="http://www.w3.org/2000/svg">
<rect x="1.61607" y="1.61607" width="82.7679" height="82.7679" rx="41.3839" fill="#EFB178" stroke="white" stroke-width="2.76786"/>
<path d="M51.9057 66.5916C64.6603 61.9493 71.2367 47.8463 66.5943 35.0916C61.952 22.337 47.849 15.7606 35.0943 20.4029C22.3397 25.0453 15.7633 39.1483 20.4057 51.9029C25.048 64.6576 39.151 71.2339 51.9057 66.5916Z" stroke="#955B32" stroke-width="2.27151"/>
<path d="M56.5524 36.5731C56.4154 36.1968 56.2057 35.8511 55.9352 35.5559C55.6646 35.2607 55.3386 35.0217 54.9756 34.8523C54.6127 34.6831 54.2201 34.5871 53.82 34.5696C53.4199 34.5521 53.0204 34.6136 52.644 34.7506L45.4106 37.3833C45.3653 37.3997 45.3168 37.4052 45.269 37.3992C45.2212 37.3931 45.1755 37.376 45.1357 37.349C45.0959 37.3219 45.063 37.2859 45.0397 37.2437C45.0166 37.2015 45.0037 37.1544 45.0021 37.1063C45.0512 35.2723 44.6231 33.457 43.7597 31.8382C42.2117 29.6823 40.5312 29.5086 39.47 30.0701C38.9551 30.3633 38.5646 30.8338 38.3711 31.3938C38.1778 31.9538 38.1949 32.5651 38.4192 33.1135C39.5646 36.2609 38.376 40.5876 36.7411 42.8895C36.6839 42.97 36.6472 43.0633 36.6338 43.1613C36.6207 43.2592 36.6316 43.359 36.6654 43.4518L40.8855 55.0463C40.9339 55.1795 41.0273 55.2917 41.1492 55.3634C41.2713 55.4353 41.4146 55.4625 41.5545 55.4402C41.9926 55.3703 42.3914 55.3109 42.7693 55.2577C44.4453 55.0637 46.092 54.6697 47.6741 54.0838L55.1242 51.3722C57.3673 50.5558 57.2443 49.1727 56.9731 48.4278C56.8295 48.0325 56.5965 47.6757 56.2925 47.3853C56.7862 46.8582 57.0521 46.1577 57.0324 45.4358C57.0127 44.7138 56.709 44.0289 56.1872 43.5296C56.5333 43.1592 56.7704 42.7003 56.8717 42.2036C56.9732 41.7068 56.9352 41.1918 56.762 40.7153C56.6065 40.2856 56.3451 39.9022 56.0019 39.6004C56.3538 39.19 56.5902 38.6933 56.687 38.1613C56.7837 37.6293 56.7373 37.0812 56.5524 36.5731Z" fill="#955B32"/>
<path d="M34.9576 44.1111C34.847 43.8072 34.6201 43.5596 34.3269 43.4228C34.0338 43.2861 33.6983 43.2716 33.3942 43.3822L29.6692 44.738C29.3653 44.8486 29.1177 45.0754 28.9809 45.3687C28.8442 45.6618 28.8297 45.9972 28.9403 46.3013L33.5291 58.9091C33.6397 59.2131 33.8667 59.4607 34.1598 59.5974C34.453 59.734 34.7885 59.7488 35.0924 59.638L38.8175 58.2823C39.1215 58.1716 39.3691 57.9448 39.5057 57.6517C39.6424 57.3584 39.6571 57.0229 39.5465 56.719L34.9576 44.1111ZM37.0971 55.3389C37.1591 55.509 37.1692 55.6935 37.1262 55.8692C37.0831 56.045 36.9889 56.204 36.8556 56.3262C36.7222 56.4485 36.5555 56.5284 36.3767 56.556C36.1979 56.5835 36.0149 56.5574 35.8509 56.4809C35.6869 56.4045 35.5494 56.2811 35.4555 56.1263C35.3617 55.9717 35.3157 55.7927 35.3237 55.6119C35.3316 55.4312 35.3928 55.2568 35.4998 55.1109C35.6069 54.9649 35.7546 54.854 35.9247 54.7922C36.1527 54.7092 36.4042 54.7202 36.6242 54.8226C36.8441 54.9253 37.0142 55.111 37.0971 55.3389Z" fill="#955B32"/>
</svg>
