<svg width="86" height="86" viewBox="0 0 86 86" fill="none" xmlns="http://www.w3.org/2000/svg">
<rect x="1.61607" y="1.61607" width="82.7679" height="82.7679" rx="41.3839" fill="#E0E0E0" stroke="white" stroke-width="2.76786"/>
<path fill-rule="evenodd" clip-rule="evenodd" d="M20.5166 30.5932L31.6902 24.2155C39.5012 19.7578 42.9741 17.898 43.2304 18.0364C43.4321 18.1453 44.5869 18.888 45.7968 19.6867L47.9965 21.1384L48.0689 19.5721L48.141 18.0059H53.8685H59.5961L59.6621 22.9404L59.7284 27.8755L61.9801 29.2341L64.2319 30.5932L64.241 35.4203L64.25 36.5813V40.2475H62.5452H60.8404L60.7732 36.2968L60.706 32.3456L58.5674 31.0171L56.4288 29.6885V25.4361V21.1832H53.8624H51.2961V23.8718C51.2961 25.3507 51.2472 26.5603 51.1878 26.5603C51.1282 26.5603 49.2499 25.459 47.0137 24.1129L42.9481 21.6659L33.4962 27.01L24.044 32.3532L23.9807 45.5883L23.9176 58.8229H33.5739H43.2304V51.8571V44.8913H49.8296H56.4288V51.8571V58.8229H79.7578C79.2222 60.133 78.8685 60.7446 78.2052 62.0003H77.9819H53.2514V55.1567V48.3131H49.9518H46.6522V55.1567V62.0003H33.5761H20.5L20.5083 46.2967L20.5166 30.5932Z" fill="black"/>
</svg>
