<svg width="86" height="86" viewBox="0 0 86 86" fill="none" xmlns="http://www.w3.org/2000/svg">
<rect x="1.61607" y="1.61607" width="82.7679" height="82.7679" rx="41.3839" fill="#C50002" stroke="white" stroke-width="2.76786"/>
<path d="M43.8861 21.0122C43.8861 20.7706 43.6902 20.5747 43.4486 20.5747C43.207 20.5747 43.0111 20.7706 43.0111 21.0122L43.0111 33.959H43.8861L43.8861 21.0122Z" fill="white"/>
<path d="M43.8861 58.4717H43.0111V60.7935C43.0111 61.0351 43.207 61.231 43.4486 61.231C43.6902 61.231 43.8861 61.0351 43.8861 60.7935V58.4717Z" fill="white"/>
<path d="M41.0361 33.959V22.4024C41.0361 22.1608 40.8402 21.9649 40.5986 21.9649C40.357 21.9649 40.1611 22.1608 40.1611 22.4024V33.959H41.0361Z" fill="white"/>
<path d="M40.1611 58.4717H41.0361V60.7935C41.0361 61.0351 40.8402 61.231 40.5986 61.231C40.357 61.231 40.1611 61.0351 40.1611 60.7935V58.4717Z" fill="white"/>
<path d="M38.1861 33.959L38.1861 23.6817C38.1861 23.4401 37.9902 23.2442 37.7486 23.2442C37.507 23.2442 37.3111 23.4401 37.3111 23.6817L37.3111 33.959H38.1861Z" fill="white"/>
<path d="M37.3111 58.4717H38.1861V60.7935C38.1861 61.0351 37.9902 61.231 37.7486 61.231C37.507 61.231 37.3111 61.0351 37.3111 60.7935V58.4717Z" fill="white"/>
<path d="M35.3361 33.959V25.2979C35.3361 25.0563 35.1402 24.8604 34.8986 24.8604C34.657 24.8604 34.4611 25.0563 34.4611 25.2979L34.4611 33.959H35.3361Z" fill="white"/>
<path d="M34.4611 58.4717H35.3361V60.7935C35.3361 61.0351 35.1402 61.231 34.8986 61.231C34.657 61.231 34.4611 61.0351 34.4611 60.7935V58.4717Z" fill="white"/>
<path d="M32.4861 33.959V26.9922C32.4861 26.7506 32.2902 26.5547 32.0486 26.5547C31.807 26.5547 31.6111 26.7506 31.6111 26.9922V33.959H32.4861Z" fill="white"/>
<path d="M31.6111 58.4717H32.4861V60.7935C32.4861 61.0351 32.2902 61.231 32.0486 61.231C31.807 61.231 31.6111 61.0351 31.6111 60.7935V58.4717Z" fill="white"/>
<path d="M29.6361 33.959V28.3179C29.6361 28.0763 29.4402 27.8804 29.1986 27.8804C28.957 27.8804 28.7611 28.0763 28.7611 28.3179L28.7611 33.959H29.6361Z" fill="white"/>
<path d="M28.7611 58.4717H29.6361V60.7935C29.6361 61.0351 29.4402 61.231 29.1986 61.231C28.957 61.231 28.7611 61.0351 28.7611 60.7935V58.4717Z" fill="white"/>
<path d="M26.7861 33.959V29.4117C26.7861 29.1701 26.5902 28.9742 26.3486 28.9742C26.107 28.9742 25.9111 29.1701 25.9111 29.4117V33.959H26.7861Z" fill="white"/>
<path d="M25.9111 58.4717H26.7861V60.7935C26.7861 61.0351 26.5902 61.231 26.3486 61.231C26.107 61.231 25.9111 61.0351 25.9111 60.7935V58.4717Z" fill="white"/>
<path d="M45.8611 58.4717H46.7361V60.7935C46.7361 61.0351 46.5402 61.231 46.2986 61.231C46.057 61.231 45.8611 61.0351 45.8611 60.7935V58.4717Z" fill="white"/>
<path d="M46.7361 33.959H45.8611V22.4006C45.8611 22.159 46.057 21.9631 46.2986 21.9631C46.5402 21.9631 46.7361 22.159 46.7361 22.4006V33.959Z" fill="white"/>
<path d="M48.7111 58.4717V60.7935C48.7111 61.0351 48.907 61.231 49.1486 61.231C49.3902 61.231 49.5861 61.0351 49.5861 60.7935V58.4717H48.7111Z" fill="white"/>
<path d="M49.5861 33.959H48.7111V23.6812C48.7111 23.4396 48.907 23.2437 49.1486 23.2437C49.3902 23.2437 49.5861 23.4396 49.5861 23.6812V33.959Z" fill="white"/>
<path d="M51.5611 58.4717V60.7935C51.5611 61.0351 51.757 61.231 51.9986 61.231C52.2402 61.231 52.4361 61.0351 52.4361 60.7935V58.4717H51.5611Z" fill="white"/>
<path d="M52.4361 33.959H51.5611V25.2964C51.5611 25.0548 51.757 24.8589 51.9986 24.8589C52.2402 24.8589 52.4361 25.0548 52.4361 25.2964V33.959Z" fill="white"/>
<path d="M54.4111 58.4717V60.7935C54.4111 61.0351 54.607 61.231 54.8486 61.231C55.0902 61.231 55.2861 61.0351 55.2861 60.7935V58.4717H54.4111Z" fill="white"/>
<path d="M55.2861 33.959H54.4111V26.9922C54.4111 26.7506 54.607 26.5547 54.8486 26.5547C55.0902 26.5547 55.2861 26.7506 55.2861 26.9922V33.959Z" fill="white"/>
<path d="M57.2611 58.4717V60.7935C57.2611 61.0351 57.457 61.231 57.6986 61.231C57.9402 61.231 58.1361 61.0351 58.1361 60.7935V58.4717H57.2611Z" fill="white"/>
<path d="M58.1361 33.959H57.2611V28.3158C57.2611 28.0742 57.457 27.8783 57.6986 27.8783C57.9402 27.8783 58.1361 28.0742 58.1361 28.3158V33.959Z" fill="white"/>
<path d="M60.1111 58.4717V60.7935C60.1111 61.0351 60.307 61.231 60.5486 61.231C60.7902 61.231 60.9861 61.0351 60.9861 60.7935V58.4717H60.1111Z" fill="white"/>
<path d="M60.9861 33.959H60.1111V29.4117C60.1111 29.1701 60.307 28.9742 60.5486 28.9742C60.7902 28.9742 60.9861 29.1701 60.9861 29.4117V33.959Z" fill="white"/>
<path d="M22 45.075H23.9407V41.5247H28.3929V45.075H30.3222V36.7642H28.3929V40.0577H23.9407V36.7642H22V45.075Z" fill="white"/>
<path d="M31.3586 45.075H33.208L35.5711 39.681C35.6586 39.4793 35.7366 39.2738 35.8051 39.0645C35.8736 38.8552 35.9307 38.6555 35.9764 38.4652H36.0392C36.0848 38.6479 36.1438 38.8438 36.2161 39.0531C36.2884 39.2624 36.3683 39.4717 36.4558 39.681L38.7447 45.075H40.851L37.0381 36.73H35.1202L31.3586 45.075ZM33.2366 43.3398H38.8304L38.3224 41.9242H33.7331L33.2366 43.3398Z" fill="white"/>
<path d="M41.9844 45.075H48.5486V43.6195H43.9251V36.7642H41.9844V45.075Z" fill="white"/>
<path d="M50.0017 45.075H56.5659V43.6195H51.9424V36.7642H50.0017V45.075Z" fill="white"/>
<path d="M58.0189 45.075H64.897V43.6252H59.9425V41.5133H64.2007V40.0863H59.9425V38.2255H64.8286V36.7642H58.0189V45.075Z" fill="white"/>
<path d="M22 55.8009H22.7964V52.1287H28.5265V55.8009H29.3176V48.0183H28.5265V51.4446H22.7964V48.0183H22V55.8009Z" fill="white"/>
<path d="M31.3786 51.963C31.3786 53.2317 31.7617 54.2152 32.5278 54.9136C33.294 55.6121 34.2757 55.9613 35.473 55.9613C36.6704 55.9613 37.6503 55.6121 38.4129 54.9136C39.1791 54.2152 39.5622 53.2317 39.5622 51.963V51.8561C39.5622 50.5875 39.1791 49.604 38.4129 48.9056C37.6503 48.2071 36.6704 47.8579 35.473 47.8579C34.2686 47.8579 33.2851 48.2071 32.5225 48.9056C31.7599 49.604 31.3786 50.5875 31.3786 51.8561V51.963ZM32.1857 51.963V51.8561C32.1857 50.7871 32.4868 49.9711 33.0891 49.408C33.6913 48.8414 34.486 48.5581 35.473 48.5581C36.4566 48.5581 37.2494 48.8414 37.8517 49.408C38.4539 49.9746 38.755 50.7907 38.755 51.8561V51.963C38.755 53.0321 38.4539 53.8499 37.8517 54.4165C37.253 54.9795 36.4601 55.2611 35.473 55.2611C34.486 55.2611 33.6913 54.9778 33.0891 54.4112C32.4868 53.8446 32.1857 53.0285 32.1857 51.963Z" fill="white"/>
<path d="M41.5323 52.861C41.5323 53.8945 41.8637 54.6695 42.5265 55.1862C43.1928 55.7029 44.0053 55.9613 44.9639 55.9613C45.9296 55.9613 46.7439 55.7029 47.4067 55.1862C48.073 54.6695 48.4062 53.8945 48.4062 52.861V48.0183H47.6151V52.861C47.6151 53.67 47.3675 54.2722 46.8721 54.6677C46.3768 55.0633 45.7461 55.2611 44.9799 55.2611C44.196 55.2611 43.5581 55.0633 43.0663 54.6677C42.5746 54.2722 42.3287 53.67 42.3287 52.861V48.0183H41.5323V52.861Z" fill="white"/>
<path d="M50.1946 53.6521C50.1946 54.3684 50.51 54.9332 51.1407 55.3466C51.775 55.7564 52.6124 55.9613 53.653 55.9613C54.6935 55.9613 55.5184 55.7564 56.1278 55.3466C56.7372 54.9332 57.0418 54.4058 57.0418 53.7644C57.0418 53.1479 56.8173 52.674 56.3683 52.3426C55.9193 52.0076 55.1015 51.7189 53.9149 51.4766C52.8102 51.2557 52.0815 51.0365 51.7287 50.8192C51.3759 50.5982 51.1995 50.29 51.1995 49.8944C51.1995 49.5167 51.3919 49.1996 51.7768 48.943C52.1652 48.6864 52.7674 48.5581 53.5835 48.5581C54.4031 48.5581 55.0196 48.7078 55.4329 49.0071C55.8463 49.3029 56.053 49.6788 56.053 50.135V50.1991H56.8441V50.1403C56.8441 49.5025 56.5483 48.9626 55.9568 48.5207C55.3688 48.0788 54.5777 47.8579 53.5835 47.8579C52.5893 47.8579 51.8089 48.061 51.2423 48.4673C50.6792 48.8699 50.3977 49.3724 50.3977 49.9746C50.3977 50.5662 50.599 51.0187 51.0017 51.3323C51.4044 51.6459 52.1973 51.9274 53.3803 52.1769C54.5634 52.412 55.3367 52.6455 55.7002 52.8771C56.0637 53.1051 56.2454 53.4098 56.2454 53.7911C56.2454 54.2116 56.0227 54.5626 55.5772 54.8441C55.1354 55.1221 54.4939 55.2611 53.653 55.2611C52.8084 55.2611 52.1545 55.1221 51.6913 54.8441C51.228 54.5662 50.9964 54.1688 50.9964 53.6521V53.588H50.1946V53.6521Z" fill="white"/>
<path d="M58.905 55.8009H64.897V55.1114H59.7015V52.1287H64.1861V51.4446H59.7015V48.7078H64.8276V48.0183H58.905V55.8009Z" fill="white"/>
<path fill-rule="evenodd" clip-rule="evenodd" d="M43.5977 16.791L64.897 28.3941V34.0916H63.0102V29.5149L43.5913 18.9362L23.8868 29.5187V33.8799H22L22 28.3903L43.5977 16.791ZM22 58.4358H23.8868V62.5994H63.0102V58.423H64.897V64.4862H22V58.4358Z" fill="white"/>
</svg>
